<svg width="18" height="18" viewBox="0 0 18 18" fill="none" xmlns="http://www.w3.org/2000/svg">
<path fill-rule="evenodd" clip-rule="evenodd" d="M16.9996 13.0028V15.4163C17.0014 15.8693 16.8122 16.3021 16.4783 16.6084C16.1445 16.9147 15.697 17.066 15.2458 17.0252C12.7703 16.7562 10.3924 15.9103 8.30318 14.5555C6.35943 13.3203 4.71147 11.6724 3.47633 9.72863C2.11675 7.62992 1.27066 5.24046 1.0066 2.75383C0.965949 2.30403 1.11622 1.85785 1.42071 1.52429C1.7252 1.19073 2.15586 1.0005 2.6075 1.00008H5.02093C5.82851 0.992131 6.51685 1.5841 6.62988 2.38378C6.73174 3.15613 6.92065 3.91447 7.19301 4.64435C7.41403 5.23232 7.27266 5.89515 6.83099 6.34179L5.80931 7.36348C6.95453 9.37752 8.62212 11.0451 10.6362 12.1903L11.6578 11.1686C12.1045 10.727 12.7673 10.5856 13.3553 10.8066C14.0852 11.079 14.8435 11.2679 15.6159 11.3698C16.4248 11.4839 17.0198 12.1861 16.9996 13.0028Z" stroke="#9DA4BD" stroke-linecap="round" stroke-linejoin="round"/>
</svg>
